<?xml version="1.0" standalone="no"?>
<!DOCTYPE svg PUBLIC "-//W3C//DTD SVG 20010904//EN"
 "http://www.w3.org/TR/2001/REC-SVG-20010904/DTD/svg10.dtd">
<svg version="1.0" xmlns="http://www.w3.org/2000/svg"
 width="778.000000pt" height="828.000000pt" viewBox="0 0 778.000000 828.000000"
 preserveAspectRatio="xMidYMid meet">

<g transform="translate(0.000000,828.000000) scale(0.100000,-0.100000)"
fill="#000000" stroke="none">
<path d="M0 4140 l0 -4140 3890 0 3890 0 0 4140 0 4140 -3890 0 -3890 0 0
-4140z m4230 3650 c260 -33 653 -188 892 -352 157 -107 247 -185 398 -346 267
-284 415 -555 505 -927 23 -93 28 -145 36 -335 10 -265 2 -804 -13 -875 -6
-27 -35 -97 -63 -155 -29 -58 -74 -151 -99 -208 -68 -152 -198 -351 -336 -517
-98 -117 -328 -329 -441 -406 -95 -64 -318 -169 -361 -169 -14 0 -8 34 10 56
24 29 68 57 128 81 62 25 215 126 299 196 115 97 362 353 432 447 100 136 170
251 218 360 23 52 56 124 73 160 57 120 63 167 71 605 9 448 2 593 -33 757
-33 149 -54 210 -120 348 -107 222 -223 387 -386 551 -141 142 -203 194 -348
292 -211 144 -454 253 -709 319 l-158 42 -285 0 c-272 0 -291 -1 -410 -26
-341 -73 -663 -220 -894 -407 -38 -31 -97 -77 -130 -102 -95 -71 -172 -159
-362 -413 -50 -67 -160 -285 -187 -371 -66 -212 -79 -271 -88 -405 -5 -74 -13
-166 -19 -205 -5 -38 -12 -99 -16 -133 -4 -41 -10 -59 -15 -50 -5 8 -9 -10 -9
-47 -1 -33 -5 -78 -9 -100 l-9 -40 -1 35 c-1 19 -4 150 -7 290 -7 300 1 363
72 548 25 64 50 131 56 147 31 94 128 285 195 384 212 312 443 518 826 735
158 90 399 176 602 217 185 36 487 45 695 19z m1774 -160 c16 -17 26 -33 23
-36 -4 -5 -67 53 -67 62 0 12 18 1 44 -26z m-101 -45 c67 -46 99 -145 70 -218
-20 -48 -28 -58 -74 -86 -21 -13 -49 -20 -74 -20 -22 1 -32 3 -22 6 20 5 23
33 3 33 -8 0 -38 18 -67 40 -52 39 -75 46 -49 15 7 -9 10 -18 6 -22 -9 -9 -33
25 -47 65 -15 46 -5 91 33 136 66 80 149 99 221 51z m-3780 -25 c41 -24 62
-69 61 -125 -1 -63 -18 -85 -64 -85 -21 0 -41 4 -45 9 -3 5 -19 12 -35 16 -17
4 -36 12 -43 19 -6 6 -29 25 -50 40 -46 35 -43 55 15 109 34 31 48 37 84 37
25 0 57 -8 77 -20z m2142 -89 c125 -25 273 -70 384 -118 255 -109 536 -315
707 -516 79 -95 202 -283 264 -407 76 -151 146 -377 156 -500 5 -65 -5 -43
-30 65 -32 139 -89 292 -157 424 -167 319 -357 533 -650 730 -199 133 -386
218 -595 271 -233 59 -579 65 -827 16 -71 -14 -136 -26 -145 -25 -39 1 102 41
208 59 172 29 170 28 385 25 149 -3 225 -9 300 -24z m-16 -175 c177 -40 389
-117 479 -173 239 -149 385 -273 525 -448 9 -11 36 -46 61 -77 25 -31 46 -59
46 -63 0 -3 8 -15 18 -26 32 -33 113 -209 152 -329 21 -63 51 -176 67 -250 25
-122 28 -154 28 -330 0 -233 -15 -331 -82 -529 -43 -131 -64 -182 -86 -210 -6
-7 -12 -20 -13 -28 -1 -8 -11 -31 -21 -51 l-18 -37 -3 30 c-2 16 1 31 7 33 15
5 14 37 -2 50 -10 9 -17 6 -30 -8 -9 -11 -17 -23 -17 -26 0 -13 -64 -96 -145
-189 -127 -145 -131 -150 -260 -270 -66 -60 -148 -140 -184 -176 -36 -36 -81
-76 -100 -89 -29 -20 -36 -21 -54 -10 -17 10 -22 10 -33 -5 -12 -17 -15 -17
-39 -1 -30 19 -32 26 -7 19 12 -3 19 1 19 11 0 12 -16 14 -97 12 -82 -2 -99 0
-108 14 -8 14 -21 16 -61 12 -50 -4 -51 -4 -51 22 0 19 -5 26 -20 26 -11 0
-20 5 -20 10 0 6 -6 10 -14 10 -8 0 -17 6 -19 13 -3 6 -6 -16 -6 -51 l-1 -62
-65 1 c-36 1 -65 5 -65 10 0 5 -5 8 -11 7 -6 -2 -13 2 -16 9 -5 12 25 11 50
-3 9 -5 9 -4 1 5 -6 7 -20 14 -30 15 -11 2 -20 10 -22 19 -3 14 5 17 42 17
l46 0 0 44 c0 24 5 46 10 48 7 2 6 16 -4 40 -13 30 -22 38 -48 41 l-33 4 35 1
c19 0 46 4 59 8 l23 7 -28 13 c-23 10 -25 13 -9 13 82 4 431 140 443 172 2 5
8 9 14 9 6 0 27 14 48 30 21 17 41 30 44 30 8 0 6 -1 96 73 151 125 282 322
347 522 66 198 83 336 65 513 -11 107 -53 298 -70 314 -9 9 -146 -38 -150 -52
-2 -6 1 -16 6 -23 5 -7 22 -50 38 -97 26 -80 28 -96 28 -265 1 -177 0 -182
-32 -284 -73 -227 -183 -396 -337 -516 -46 -36 -87 -65 -93 -65 -5 0 -12 -6
-15 -13 -5 -14 -144 -85 -221 -112 -26 -10 -85 -23 -130 -30 -44 -7 -90 -16
-101 -21 -18 -7 -19 -6 -4 8 14 15 91 34 105 26 4 -1 10 7 15 20 5 13 17 22
29 22 11 0 20 7 20 16 0 8 4 12 10 9 6 -4 7 1 3 11 -4 11 -8 13 -11 6 -6 -19
-37 -14 -60 11 -15 16 -18 27 -12 37 5 8 10 11 10 7 0 -15 60 34 60 49 0 8 5
14 11 14 8 0 8 4 2 13 -18 23 12 87 43 91 14 2 19 11 18 34 -1 22 3 29 12 25
9 -3 14 2 14 16 0 11 16 35 36 53 53 48 147 167 183 231 17 30 43 95 57 144
23 74 27 107 27 213 1 132 -11 189 -64 291 -49 98 -162 221 -259 282 -30 19
-68 46 -83 60 -16 13 -61 35 -100 48 -61 20 -90 24 -197 23 -113 -1 -134 -4
-220 -33 -237 -81 -426 -279 -495 -521 -26 -89 -26 -280 -1 -365 20 -67 90
-217 118 -254 21 -27 24 -71 6 -89 -16 -16 -28 -15 -28 3 0 8 5 15 10 15 12 0
13 10 0 30 -13 21 -23 6 -25 -36 -1 -28 5 -41 27 -59 28 -24 38 -55 17 -55 -5
0 -7 -5 -3 -11 5 -8 10 -6 16 5 5 9 17 16 26 16 11 0 13 -3 6 -8 -6 -4 -14
-22 -17 -40 -5 -26 -2 -36 15 -50 12 -9 35 -29 51 -44 16 -16 33 -28 38 -28 5
0 22 -8 36 -17 31 -21 81 -40 138 -55 22 -6 48 -14 57 -19 24 -12 142 -28 165
-23 10 2 23 1 29 -3 15 -11 45 -126 36 -135 -14 -14 -152 -10 -227 6 -94 20
-138 36 -256 95 -110 56 -163 89 -259 167 -85 69 -121 110 -190 215 -133 202
-198 485 -166 725 57 427 351 764 791 905 106 34 239 44 393 31 158 -14 258
-39 355 -88 78 -39 77 -38 77 -21 0 7 11 37 25 65 14 29 25 54 25 56 0 9 -150
72 -235 99 -212 66 -524 49 -773 -43 -248 -93 -501 -307 -645 -547 -133 -220
-195 -538 -153 -773 49 -268 154 -488 320 -667 75 -80 244 -207 348 -259 137
-69 346 -124 475 -124 65 0 72 -2 79 -22 4 -13 7 -36 6 -53 -2 -35 17 -73 19
-40 3 31 16 -122 18 -202 0 -43 -3 -73 -9 -73 -6 0 -10 49 -10 126 0 81 -4
123 -10 119 -11 -7 -12 -125 -1 -202 7 -47 2 -147 -14 -318 -19 -202 -25 -327
-27 -542 -2 -264 -6 -278 -47 -160 -36 102 -72 175 -150 307 -65 108 -163 255
-181 270 -3 3 -19 23 -35 45 -17 22 -55 70 -85 106 -30 36 -64 79 -75 94 -63
91 -221 270 -326 372 -247 239 -316 318 -442 507 -64 96 -136 264 -167 388
-23 93 -55 168 -71 168 -6 0 -8 -8 -5 -17 6 -23 15 -72 9 -55 -3 7 -10 11 -16
9 -15 -5 -10 -76 6 -97 7 -8 2 -7 -10 3 -12 11 -26 16 -31 13 -10 -6 -16 15
-32 114 -49 304 -31 624 50 870 39 118 142 329 212 435 84 127 315 348 468
446 207 134 445 227 675 265 116 19 505 13 604 -10z m2257 -119 l27 -24 -14
-349 c-10 -252 -14 -686 -14 -1559 0 -1110 3 -1302 21 -1526 7 -75 6 -77 -19
-94 -31 -20 -60 -9 -81 33 -15 30 -20 435 -32 2459 l-6 1032 27 25 c35 32 56
33 91 3z m-5107 -22 c61 -31 58 70 54 -1780 -1 -929 -3 -1700 -3 -1713 0 -49
-84 -95 -107 -59 -4 6 -8 712 -8 1567 0 855 -5 1647 -9 1760 -8 188 -8 207 8
223 21 21 29 21 65 2z m4769 -222 c15 -20 16 -77 2 -103 -20 -37 -47 -43 -86
-20 -58 36 -70 82 -31 117 12 11 29 23 37 26 23 9 63 -2 78 -20z m-4363 -8
c14 -13 25 -33 25 -44 0 -24 -30 -57 -39 -43 -3 6 -19 14 -34 17 -15 4 -27 11
-27 16 0 5 -10 13 -22 18 -22 8 -22 8 6 35 36 32 60 33 91 1z m5320 -285 c4
-47 11 -97 17 -112 12 -31 67 -61 142 -78 61 -13 86 -27 86 -45 0 -8 -3 -15
-7 -16 -90 -6 -168 -20 -187 -33 -16 -10 -29 -32 -36 -58 -27 -110 -31 -120
-44 -109 -8 6 -17 35 -20 64 -15 113 -31 126 -163 135 -127 8 -126 32 3 61
133 30 141 37 155 157 20 161 44 176 54 34z m-415 -100 c12 -7 15 -34 14 -137
-10 -1389 -11 -1831 -5 -1943 7 -166 3 -213 -22 -218 -26 -5 -74 16 -83 36 -3
10 -9 515 -11 1123 l-5 1107 21 21 c22 22 65 27 91 11z m-5490 -45 l23 -24 -5
-1090 c-6 -1198 -2 -1132 -65 -1147 -49 -13 -58 4 -55 102 1 49 4 554 5 1123
3 995 4 1034 22 1047 27 20 49 17 75 -11z m-392 -60 c61 -22 66 -45 12 -57
-54 -12 -200 7 -200 26 0 11 115 57 130 53 3 -1 29 -11 58 -22z m833 -214 c21
-17 24 -27 24 -93 -5 -630 -4 -1435 1 -1518 8 -125 3 -152 -29 -169 -31 -17
-61 -2 -82 39 -14 26 -15 131 -13 869 l3 839 24 26 c29 31 41 32 72 7z m4603
-14 c21 -28 21 -31 18 -875 -3 -843 -3 -847 -23 -864 -26 -22 -53 -23 -72 -3
-13 13 -16 130 -19 862 -2 467 0 859 5 873 16 49 57 52 91 7z m-2213 -1 c152
-33 292 -144 367 -292 107 -210 67 -499 -87 -635 -24 -22 -51 -39 -61 -39 -21
0 -55 36 -42 44 6 3 13 0 15 -6 4 -9 6 -8 6 2 0 8 -3 21 -8 29 -7 11 -15 10
-41 -9 -40 -28 -180 -70 -235 -70 -45 0 -147 24 -181 43 -53 29 -136 91 -163
123 -35 39 -85 136 -102 197 -7 23 -15 87 -18 142 l-6 100 -27 -3 c-18 -2 -28
1 -28 10 -1 8 -7 5 -17 -7 -15 -19 -15 -19 -9 10 16 69 111 193 206 268 113
89 279 125 431 93z m-3030 -208 c8 -30 10 -218 7 -648 -3 -558 -4 -608 -21
-633 -43 -67 -113 -35 -110 51 11 374 13 865 4 1041 -8 164 -7 218 2 229 38
46 100 25 118 -40z m5909 50 c30 -33 32 -49 21 -208 -14 -185 -14 -940 -1
-1009 12 -65 -6 -117 -43 -126 -31 -8 -65 9 -76 38 -5 12 -9 304 -10 649 -2
570 0 630 15 653 21 32 65 34 94 3z m-1131 -253 c1 -16 -1 -17 -9 -5 -5 8 -9
29 -9 45 1 29 1 29 9 5 4 -14 8 -34 9 -45z m1345 -109 l24 -23 -4 -289 c-2
-159 -4 -299 -4 -311 0 -27 -33 -47 -66 -39 -14 4 -33 21 -44 39 -19 30 -20
51 -19 307 0 151 4 283 8 294 7 19 47 45 69 46 7 0 24 -11 36 -24z m-6353 -27
c19 -19 20 -30 18 -262 -2 -292 -8 -344 -39 -369 -25 -20 -47 -23 -70 -8 -13
8 -15 52 -12 322 3 274 6 315 20 326 24 18 59 15 83 -9z m6572 -228 c38 -38
34 -145 -9 -187 -23 -24 -25 -24 -55 -9 -35 19 -59 67 -59 120 0 39 22 90 42
99 20 8 61 -4 81 -23z m-6796 4 c8 -9 17 -33 20 -55 5 -32 1 -43 -20 -64 -30
-30 -77 -34 -101 -10 -22 22 -20 70 5 110 16 26 27 34 51 34 16 0 36 -7 45
-15z m3687 -226 c-9 -11 -24 -19 -33 -19 -15 1 -15 2 0 13 9 7 14 17 12 24 -3
7 3 9 17 6 20 -5 20 -7 4 -24z m-843 -96 c13 -15 12 -15 -8 -4 -24 12 -29 21
-14 21 5 0 15 -7 22 -17z m29 -33 c0 -5 -2 -10 -4 -10 -3 0 -8 5 -11 10 -3 6
-1 10 4 10 6 0 11 -4 11 -10z m-1495 -285 c7 -5 25 -44 39 -85 15 -41 31 -82
36 -90 17 -27 40 -82 40 -95 0 -7 7 -18 15 -25 8 -7 15 -20 15 -29 -1 -13 -3
-13 -16 4 -8 11 -23 19 -33 17 -13 -2 -21 8 -31 40 -7 24 -19 50 -26 58 -7 8
-20 35 -29 60 -10 25 -24 60 -32 79 -27 60 -33 90 -17 84 8 -3 14 1 15 8 0 11
2 10 6 -1 4 -8 12 -19 18 -25z m2215 -85 c0 -5 3 -9 8 -9 18 3 32 -2 32 -11 0
-18 -35 -11 -48 10 -7 12 -8 20 -2 20 5 0 10 -4 10 -10z m-3400 -185 c5 -14
26 -35 45 -47 43 -25 42 -47 -3 -62 -19 -7 -39 -21 -44 -31 -6 -11 -12 -22
-14 -24 -2 -2 -15 11 -29 28 -15 17 -41 34 -58 39 -46 12 -44 30 7 52 30 12
50 28 56 45 12 32 28 32 40 0z m1344 -109 c9 3 33 -23 65 -68 27 -40 54 -77
59 -83 24 -29 72 -105 72 -113 0 -6 -6 -12 -12 -15 -10 -3 -10 -8 1 -18 10
-11 15 -11 18 -1 7 17 23 15 23 -3 0 -9 6 -18 14 -21 8 -3 17 -16 20 -30 4
-13 11 -24 16 -24 10 0 73 -61 161 -158 60 -65 60 -80 0 -35 -106 81 -198 180
-206 221 -5 26 -9 32 -18 23 -13 -13 -70 44 -144 144 -57 77 -80 121 -87 170
-3 22 -3 32 0 23 3 -9 11 -15 18 -12z m-1276 -175 l33 -33 -35 -24 c-33 -23
-40 -36 -48 -89 -5 -33 -31 -23 -41 15 -11 44 -23 56 -66 67 -53 13 -49 31 12
57 54 25 67 39 67 79 1 20 3 19 23 -8 12 -16 37 -45 55 -64z m992 -33 c24 -26
26 -51 4 -68 -8 -8 -14 -9 -13 -4 4 25 -1 38 -12 27 -16 -16 -64 29 -56 51 9
23 53 20 77 -6z m4254 -37 c6 -40 48 -101 69 -101 16 -1 57 -36 57 -48 0 -6
-25 -23 -56 -38 -47 -23 -59 -35 -75 -72 -10 -24 -24 -42 -30 -40 -7 2 -19 24
-28 48 -18 49 -46 69 -112 77 -23 3 -39 11 -39 19 0 7 32 29 70 50 69 36 71
38 86 93 9 31 19 60 21 64 9 16 31 -14 37 -52z m-3911 -343 c60 -18 112 -72
131 -137 30 -100 17 -171 -31 -171 -16 0 -67 -3 -114 -6 -79 -5 -91 -4 -142
21 -31 14 -64 36 -74 49 -27 33 -71 59 -89 52 -42 -16 23 105 79 148 71 55
154 70 240 44z m3767 -93 c0 -8 -2 -15 -4 -15 -2 0 -6 7 -10 15 -3 8 -1 15 4
15 6 0 10 -7 10 -15z m-133 -6 c40 -15 91 -67 104 -107 14 -41 14 -115 0 -139
-6 -11 -24 -18 -48 -19 -21 -1 -49 -5 -62 -8 -26 -6 -107 38 -146 79 -57 61
-64 106 -24 146 54 54 116 71 176 48z m-676 -502 c17 -156 39 -178 201 -201
135 -19 101 -54 -54 -55 -31 -1 -69 -7 -84 -13 -22 -10 -28 -10 -32 0 -2 6
-10 12 -18 12 -8 0 -17 7 -20 15 -9 21 -31 19 -44 -5 -9 -17 -7 -28 10 -54 11
-19 16 -36 10 -38 -6 -2 -7 -22 -1 -57 5 -30 5 -66 1 -80 -6 -23 -8 -20 -18
27 -7 29 -12 63 -12 76 0 35 -26 89 -50 104 -12 7 -60 18 -108 23 -107 13
-113 15 -106 32 3 9 27 17 57 21 29 4 76 12 106 19 46 10 56 17 76 52 16 27
27 70 35 130 6 50 13 96 16 104 10 32 23 -9 35 -112z m-2271 -40 c14 -7 33
-28 42 -47 34 -66 18 -139 -43 -198 -55 -54 -100 -55 -156 -4 -53 49 -65 156
-24 211 32 42 131 63 181 38z m2285 -236 c3 -5 1 -12 -5 -16 -5 -3 -10 1 -10
9 0 18 6 21 15 7z m1370 -843 c61 -24 135 -69 135 -83 0 -5 -13 -23 -28 -40
-16 -16 -36 -43 -47 -58 -17 -26 -19 -27 -39 -12 -47 35 -109 55 -166 55 -69
0 -103 -13 -120 -46 -15 -28 -7 -88 14 -109 22 -23 101 -59 191 -89 161 -52
235 -130 243 -252 3 -36 -1 -84 -8 -108 -17 -62 -88 -138 -162 -175 -52 -27
-72 -31 -138 -31 -123 0 -242 44 -326 122 -24 22 -44 47 -44 55 0 7 16 23 35
35 20 11 43 34 51 50 l15 29 39 -34 c22 -18 65 -46 96 -61 129 -64 266 -18
266 88 0 69 -28 91 -182 141 -115 37 -155 59 -205 111 -97 99 -100 247 -6 348
84 90 250 118 386 64z m-5787 -75 c27 -54 53 -111 59 -128 21 -58 105 -271
138 -350 19 -44 37 -97 40 -117 9 -47 21 -48 34 -5 49 166 258 673 284 689 17
11 165 10 171 -1 5 -7 -45 -126 -131 -311 -14 -30 -33 -75 -43 -100 -10 -25
-61 -144 -115 -265 -122 -278 -120 -273 -135 -315 -6 -19 -16 -44 -20 -55 -5
-11 -11 -28 -14 -37 -10 -32 -21 -19 -38 45 -9 34 -57 145 -106 247 -49 102
-111 237 -137 300 -26 63 -65 156 -87 205 -22 50 -47 106 -55 125 -9 19 -29
62 -45 94 -35 72 -32 76 74 76 l78 0 48 -97z m962 75 c22 -24 21 -51 -6 -116
-9 -22 -10 -40 -4 -57 5 -13 10 -190 11 -392 l1 -368 -68 -8 c-38 -4 -74 -5
-82 -2 -10 4 -12 76 -10 379 3 354 4 376 22 389 17 12 17 16 4 38 -9 13 -18
43 -22 67 -5 37 -3 46 18 67 34 34 106 35 136 3z m683 -12 c32 -17 73 -47 92
-67 34 -38 65 -119 65 -169 0 -50 -31 -120 -66 -148 -19 -15 -34 -30 -34 -34
0 -4 15 -14 34 -22 19 -8 48 -33 64 -55 77 -106 61 -256 -37 -342 -98 -87
-166 -102 -429 -97 -151 2 -183 6 -186 18 -8 28 -19 928 -11 940 5 9 65 11
229 8 l221 -3 58 -29z m935 -31 c2 -32 1 -69 -3 -82 l-5 -23 -216 0 -215 0 3
-112 3 -113 180 2 c131 1 181 -1 187 -10 10 -16 10 -128 0 -144 -6 -9 -60 -13
-192 -15 l-184 -3 3 -110 c1 -60 4 -111 6 -113 1 -2 99 -4 216 -5 l214 -2 3
-87 3 -88 -300 0 c-184 0 -302 4 -306 10 -9 14 -10 934 -1 948 6 9 79 12 304
10 l297 -3 3 -60z m695 50 c107 -28 202 -104 264 -210 63 -107 76 -160 71
-273 -7 -144 -39 -215 -142 -314 l-49 -47 18 -27 c15 -23 129 -158 160 -189
35 -36 130 -96 187 -118 36 -14 105 -32 153 -39 117 -17 301 8 414 56 87 38
161 52 161 31 0 -25 -115 -146 -166 -176 -120 -68 -192 -91 -309 -96 -127 -6
-178 2 -299 50 -155 62 -216 108 -386 293 -36 38 -74 83 -85 98 -20 27 -21 27
-67 15 -114 -31 -321 59 -426 185 -85 101 -120 215 -108 349 9 98 69 218 147
292 121 115 301 162 462 120z m601 9 c14 -5 16 -44 16 -331 0 -220 4 -331 11
-346 16 -32 70 -87 99 -102 71 -36 156 -25 217 28 62 55 63 61 63 421 0 369
-10 336 100 336 53 0 69 -4 74 -16 9 -24 7 -505 -3 -616 -14 -155 -75 -249
-198 -305 -180 -83 -406 -13 -486 149 -15 29 -31 82 -37 118 -11 72 -14 653
-3 663 8 9 126 9 147 1z m1336 -73 c0 -65 -3 -80 -17 -85 -10 -4 -101 -7 -203
-6 -102 1 -191 1 -197 1 -10 -1 -13 -30 -13 -111 l0 -110 190 0 189 0 6 -33
c4 -17 5 -55 3 -82 l-3 -50 -194 -5 -194 -5 -1 -103 c0 -57 1 -107 4 -110 3
-4 100 -7 215 -7 l210 0 0 -85 0 -85 -116 -8 c-63 -4 -196 -4 -295 0 l-179 8
-3 478 -2 477 300 0 300 0 0 -79z m1446 42 c-3 -21 -6 -60 -6 -87 l0 -49 -122
4 -123 4 -5 -362 c-6 -410 -3 -396 -90 -440 -79 -41 -77 -43 -85 135 -4 86 -5
270 -1 408 l7 251 -68 6 c-37 4 -89 7 -115 7 -26 0 -50 5 -53 10 -10 16 -18
117 -12 134 6 14 47 16 343 16 l337 0 -7 -37z"/>
<path d="M4664 6615 c-3 -8 -29 -31 -57 -51 l-51 -37 34 -26 c103 -77 226
-216 274 -308 21 -41 38 -41 86 -3 21 17 43 30 48 30 27 0 18 25 -32 93 -30
41 -61 81 -68 88 -7 8 -26 32 -42 53 -49 65 -157 176 -173 176 -7 0 -16 -7
-19 -15z"/>
<path d="M3290 5184 c0 -8 5 -12 10 -9 6 3 10 10 10 16 0 5 -4 9 -10 9 -5 0
-10 -7 -10 -16z"/>
<path d="M4330 4700 c-13 -8 -12 -10 3 -10 9 0 17 5 17 10 0 12 -1 12 -20 0z"/>
<path d="M4138 4363 c7 -3 16 -2 19 1 4 3 -2 6 -13 5 -11 0 -14 -3 -6 -6z"/>
<path d="M1970 4671 c0 -5 5 -13 10 -16 6 -3 10 -2 10 4 0 5 -4 13 -10 16 -5
3 -10 2 -10 -4z"/>
<path d="M2019 1964 c-2 -16 -2 -57 0 -148 l1 -88 128 4 c141 4 160 11 186 65
32 66 13 123 -49 149 -38 15 -265 31 -266 18z"/>
<path d="M2020 1455 l0 -125 135 0 c149 0 178 8 213 58 32 44 36 91 12 130
-32 52 -70 62 -225 62 l-135 0 0 -125z"/>
<path d="M3792 1955 c-63 -17 -93 -35 -150 -89 -61 -57 -84 -107 -90 -191 -5
-94 23 -170 90 -241 54 -57 145 -110 197 -116 53 -5 49 18 -13 78 -76 73 -73
114 6 114 56 0 106 -24 160 -77 l48 -47 30 29 c17 17 45 58 61 91 94 191 2
395 -203 450 -64 17 -69 17 -136 -1z"/>
</g>
</svg>
